<svg xmlns="http://www.w3.org/2000/svg" enable-background="new 0 0 50 50" viewBox="0 0 50 50"><path d="M42.91761 28.01397h-38.49c-1 0-1.95.49-2.53 1.3199-.58.8301-.71 1.8902-.37 2.8301l5.29 14.34c.67 1.8299 2.43 3.0599 4.39 3.0599h24.94c1.94 0 3.71-1.23 4.39-3.0599l5.28-14.33C46.55761 30.17397 45.07761 28.01397 42.91761 28.01397zM41.08761 34.12397l-3.31 8.4399c-.2.52-.79.76-1.29.5701-.52-.21-.77-.7901-.57-1.3001l3.31-8.4399c.2-.52.78-.77 1.3-.5701C41.03761 33.02396 41.28761 33.60387 41.08761 34.12397zM12.40761 12.17397c0-1.23-.1-2.43-.43-3.27-.19-.52-.77-.77-1.29-.5801-.52.2001-.77.78-.58 1.2901.22.57.31 1.4799.31 2.4599-3.86.3201-6.9 3.5501-6.9 7.5 0 4.1502 3.38 7.53 7.53 7.53s7.53-3.3798 7.53-7.53C18.57761 15.87397 15.90761 12.80397 12.40761 12.17397zM11.22761 17.76397c-.01 0-.01 0-.01 0-1.25.16-3.41-.55-2.6-1.86.72-1.21 1.6.49 3.59-.4h.01C13.61761 14.90397 14.88761 17.63397 11.22761 17.76397zM17.28761 25.74397c-.45.2301-.66.76-.49 1.2301.16628.4868.67418.7615 1.16.6399 12.49-2.7801 15-12.11 15.63-17.84-1.3.67-2.55.93-3.69.93-2.49 0-4.51-1.2299-5.64-2.1201 0 .1201 0 .23.01.3501C24.89689 17.98757 21.00079 23.94687 17.28761 25.74397zM33.78761 7.30397c.16318-2.1191-.58942-3.5522-1.94152-4.392.2237-.2143.4767-.4383.794-.6796.43952-.334.52452-.962.19052-1.4014-.333-.4395-.96192-.5254-1.40142-.1904-.7731.588-1.328 1.1499-1.7344 1.6721-2.2218-.0051-4.1848 2.1448-4.96718 4.0312C24.82761 6.34387 28.74269 10.92497 33.78761 7.30397zM45.68761 10.19397c-2.12442-.863-4.613-.2724-5.45 1.6299l-6.25 14.1901h8.93c.5 0 .99.0699 1.46.23l4.09-11.08C49.10569 13.49477 48.12828 11.19497 45.68761 10.19397zM30.60599 21.84467c-.2266.9004-.8067 2.4365-1.3311 2.875-.4238.3545-.4805.9843-.1269 1.4082.1982.2373.4814.3593.7685.3593.2256 0 .45312-.0761.6397-.2324 1.207-1.0078 1.8691-3.4433 1.9892-3.9219.1348-.5351-.1904-1.0791-.7256-1.2138C31.28169 20.98427 30.74069 21.30847 30.60599 21.84467z"/></svg>