<svg xmlns="http://www.w3.org/2000/svg" data-name="Layer 1" viewBox="0 0 64 64"><path d="M36.19,26.36a1.68,1.68,0,0,0-1.08.38,1,1,0,0,1-1.55-1.18,1.74,1.74,0,0,0,.15-.7,1.71,1.71,0,0,0-3.42,0,1.74,1.74,0,0,0,.15.7,1,1,0,0,1-1.55,1.18,1.68,1.68,0,0,0-1.08-.38,1.71,1.71,0,0,0,0,3.42,1.58,1.58,0,0,0,.46-.06,1,1,0,0,1,1.28,1v3.25h4.9V30.68a1,1,0,0,1,1.28-1,1.58,1.58,0,0,0,.46.06,1.71,1.71,0,1,0,0-3.42Z"/><path d="M46,13H43V6a3,3,0,0,0-4-2.82L13.64,13.07h0l-.1.06a1,1,0,0,0-.21.14l-.08.1a1,1,0,0,0-.13.19,1.36,1.36,0,0,0-.09.36s0,0,0,.07V60a1,1,0,0,0,1,1H46a5,5,0,0,0,5-5V18A5,5,0,0,0,46,13ZM36.45,31.78V36a1,1,0,0,1-1,1h-6.9a1,1,0,0,1-1-1V31.78a3.71,3.71,0,0,1,.26-7.41,3.67,3.67,0,0,1,.51,0,3.71,3.71,0,0,1,7.36,0,3.67,3.67,0,0,1,.51,0,3.71,3.71,0,0,1,.26,7.41ZM39,44a1,1,0,0,1-1,1H26a1,1,0,0,1,0-2H38A1,1,0,0,1,39,44Zm.66-38.94A1,1,0,0,1,41,6v7H19.31ZM43,53H21a1,1,0,0,1,0-2H43a1,1,0,0,1,0,2Zm0-4H21a1,1,0,0,1,0-2H43a1,1,0,0,1,0,2Z"/></svg>