<svg xmlns="http://www.w3.org/2000/svg" viewBox="0 0 64 64"><path d="M61.85 41.474A1 1 0 0 0 61 41h-4.048A10.946 10.946 0 0 0 50 31.758V3a1 1 0 0 0-1-1H3a1 1 0 0 0-1 1v58a1 1 0 0 0 1 1h46a1 1 0 0 0 1-1V51h7a1 1 0 0 0 .895-.553l4-8c.154-.31.138-.678-.044-.973zM54.946 41H31.06c.029-.256.063-.51.113-.76.006-.03.015-.059.021-.089.05-.239.109-.476.177-.71.027-.088.06-.175.088-.264.057-.172.116-.343.184-.512.039-.097.082-.193.124-.29a8.817 8.817 0 0 1 .636-1.188c.057-.089.112-.178.172-.265.105-.153.218-.302.334-.45.056-.07.108-.144.166-.214A8.94 8.94 0 0 1 40 33h6c.92 0 1.83.14 2.7.414A8.968 8.968 0 0 1 54.944 41zM48 60H4V4h44v27.182c-.048-.009-.097-.012-.146-.02a10.909 10.909 0 0 0-.62-.085c-.101-.011-.201-.026-.302-.035-.31-.026-.62-.042-.932-.042h-6a10.926 10.926 0 0 0-8.473 3.99c-.073.088-.138.182-.209.272-.14.18-.279.36-.407.548-.075.11-.144.224-.216.337-.11.176-.219.352-.319.532-.068.122-.13.246-.193.37a10.858 10.858 0 0 0-.419.931c-.074.19-.142.381-.206.575-.042.13-.085.258-.123.39-.059.204-.108.41-.155.619-.028.124-.06.246-.083.37-.045.24-.078.484-.107.728-.012.096-.03.19-.039.287-.001.017-.005.034-.007.051H25a1 1 0 0 0-.894 1.447l4 8A1 1 0 0 0 29 51h19v9zm8.382-11H29.618l-3-6h32.764l-3 6z"/><path d="M11 15h25a1 1 0 0 0 0-2H11a1 1 0 0 0 0 2zm0 5h21a1 1 0 0 0 0-2H11a1 1 0 0 0 0 2zm0 5h14a1 1 0 0 0 0-2H11a1 1 0 0 0 0 2zm9 3h-9a1 1 0 0 0 0 2h9a1 1 0 0 0 0-2zm-3 5h-6a1 1 0 0 0 0 2h6a1 1 0 0 0 0-2zm25 1h-2a1 1 0 0 0 0 2h2a1 1 0 0 0 0-2zm-4 3h-2a1 1 0 0 0 0 2h2a1 1 0 0 0 0-2zm8 0h-2a1 1 0 0 0 0 2h2a1 1 0 0 0 0-2zm-35 1a1 1 0 0 0-1 1v2a1 1 0 0 0 2 0v-2a1 1 0 0 0-1-1zm4 0a1 1 0 0 0-1 1v2a1 1 0 0 0 2 0v-2a1 1 0 0 0-1-1zm4 0a1 1 0 0 0-1 1v2a1 1 0 0 0 2 0v-2a1 1 0 0 0-1-1z"/></svg>